<?xml version="1.0" standalone="no"?>
<!DOCTYPE svg PUBLIC "-//W3C//DTD SVG 20010904//EN"
 "http://www.w3.org/TR/2001/REC-SVG-20010904/DTD/svg10.dtd">
<svg version="1.0" xmlns="http://www.w3.org/2000/svg"
 width="200.000000pt" height="200.000000pt" viewBox="0 0 200.000000 200.000000"
 preserveAspectRatio="xMidYMid meet">
<metadata>
Created by potrace 1.10, written by Peter Selinger 2001-2011
</metadata>
<g transform="translate(0.000000,200.000000) scale(0.100000,-0.100000)"
fill="#000000" stroke="none">
<path d="M1125 1805 c-14 -13 -25 -30 -25 -37 0 -10 -25 -13 -98 -14 -125 0
-233 -25 -307 -70 l-58 -34 -22 20 c-43 40 -104 17 -125 -46 -11 -32 -10 -39
7 -63 11 -14 29 -27 39 -29 17 -2 19 -11 15 -94 -2 -54 4 -137 14 -205 9 -62
14 -125 10 -140 -3 -14 -33 -56 -67 -92 -93 -102 -165 -203 -206 -288 -34 -72
-37 -85 -37 -168 0 -105 18 -148 84 -208 69 -62 171 -79 333 -54 9 1 26 -13
40 -33 15 -21 47 -46 83 -65 53 -26 71 -29 145 -29 103 0 528 72 613 104 78
29 137 76 169 135 23 42 28 62 28 125 0 155 -75 306 -276 551 -34 41 -68 88
-76 105 -8 16 -32 98 -54 183 -25 101 -53 184 -80 239 -40 83 -41 85 -23 103
34 34 20 88 -31 114 -41 21 -67 19 -95 -10z m108 -37 c20 -27 20 -28 2 -48
-14 -15 -21 -17 -32 -9 -23 20 -26 2 -5 -28 51 -73 96 -184 138 -346 24 -93
44 -171 44 -173 0 -2 38 -50 83 -106 309 -381 359 -616 157 -743 -57 -36 -124
-53 -341 -90 -112 -19 -231 -39 -264 -46 -46 -9 -73 -9 -118 1 -55 11 -58 13
-53 36 5 17 2 24 -9 24 -8 0 -15 -7 -15 -15 0 -19 -10 -19 -38 1 -19 13 -22
22 -17 45 7 32 -8 40 -24 12 -8 -15 -10 -14 -17 11 -14 57 46 125 123 139 51
10 142 -11 218 -50 126 -63 236 -53 299 30 64 83 57 148 -24 229 l-57 57 20
20 c30 29 12 39 -23 12 l-30 -22 -47 21 c-159 70 -416 79 -608 19 -36 -11 -65
-25 -65 -31 0 -11 10 -10 105 16 202 53 436 36 592 -43 109 -54 153 -106 153
-177 0 -31 -2 -35 -15 -24 -21 18 -32 4 -17 -21 11 -17 9 -25 -8 -49 -21 -30
-40 -39 -40 -20 0 6 -7 10 -16 10 -10 0 -13 -6 -9 -19 4 -15 -1 -19 -32 -24
-49 -8 -94 3 -163 38 -68 35 -141 55 -200 55 -83 -1 -164 -55 -177 -121 -5
-25 -11 -28 -78 -38 -124 -18 -211 5 -279 75 -44 45 -60 92 -59 169 1 128 55
222 269 474 l46 54 -5 71 c-2 39 -10 119 -18 178 -12 103 -7 182 16 241 5 12
2 17 -9 17 -9 0 -16 -7 -16 -15 0 -18 -14 -19 -41 -5 -26 14 -24 53 5 87 22
25 26 26 51 15 20 -9 26 -18 22 -32 -8 -31 7 -32 44 -4 100 76 242 111 408
102 50 -3 91 -3 91 0 0 2 -6 10 -14 16 -10 8 -12 18 -5 34 13 34 74 28 102
-10z"/>
<path d="M1065 1569 c-27 -4 -77 -17 -110 -28 -33 -10 -87 -22 -120 -25 -32
-4 -88 -14 -122 -23 -71 -19 -78 -33 -44 -89 25 -41 78 -60 124 -45 38 13 81
55 92 89 8 27 36 29 60 2 23 -25 85 -45 118 -36 65 16 113 97 87 146 -12 22
-11 22 -85 9z m65 -39 c0 -30 -28 -80 -45 -80 -8 0 -15 -4 -15 -10 0 -5 -9
-10 -20 -10 -30 0 -24 17 9 28 23 8 33 20 42 51 13 43 29 55 29 21z m-67 -18
c13 -19 -2 -35 -19 -21 -9 7 -14 8 -13 3 5 -27 -2 -32 -37 -24 -44 10 -50 16
-35 34 9 11 19 12 37 6 13 -5 23 -6 23 -2 -3 15 2 20 19 18 9 0 21 -7 25 -14z
m-213 -56 c-10 -45 -16 -53 -52 -72 -21 -11 -33 -13 -41 -5 -7 7 -5 12 7 17 9
4 20 4 23 0 9 -9 43 45 43 70 0 23 9 36 20 29 5 -3 4 -20 0 -39z m-74 -13 c1
-15 -3 -20 -14 -15 -9 3 -13 1 -9 -5 13 -20 -23 -23 -43 -3 -11 11 -15 20 -9
20 5 0 7 5 3 12 -4 6 -3 8 2 5 6 -3 16 -1 24 4 23 14 45 6 46 -18z"/>
<path d="M892 1385 c-58 -26 -54 -69 9 -90 41 -14 48 -36 20 -64 -25 -25 -54
-27 -76 -5 -11 11 -20 13 -26 7 -15 -15 28 -43 64 -43 16 0 38 10 50 23 20 19
26 21 48 10 46 -24 113 -8 125 29 9 29 -6 36 -23 11 -20 -30 -84 -32 -113 -3
-26 26 -25 34 5 54 45 30 24 87 -32 86 -10 -1 -33 -7 -51 -15z"/>
<path d="M1055 1068 c-11 -7 -44 -12 -72 -13 -67 -2 -70 -19 -4 -23 53 -3 127
21 116 38 -8 13 -15 12 -40 -2z"/>
<path d="M675 940 c-3 -6 3 -23 14 -39 11 -16 25 -40 31 -55 11 -29 30 -35 30
-9 0 14 -57 113 -65 113 -2 0 -7 -5 -10 -10z"/>
<path d="M95 500 c-4 -6 22 -10 69 -10 44 0 76 4 76 10 0 6 -30 10 -69 10 -39
0 -73 -4 -76 -10z"/>
<path d="M1785 500 c-4 -6 18 -10 59 -10 37 0 66 4 66 10 0 6 -26 10 -59 10
-33 0 -63 -4 -66 -10z"/>
</g>
</svg>
